<?xml version="1.0" encoding="UTF-8" standalone="no"?>
<!DOCTYPE svg PUBLIC "-//W3C//DTD SVG 1.1//EN" "http://www.w3.org/Graphics/SVG/1.1/DTD/svg11.dtd">
<svg width="100%" height="100%" viewBox="0 0 2816 424" version="1.1" xmlns="http://www.w3.org/2000/svg" xmlns:xlink="http://www.w3.org/1999/xlink" xml:space="preserve" xmlns:serif="http://www.serif.com/" style="fill-rule:evenodd;clip-rule:evenodd;stroke-linejoin:round;stroke-miterlimit:2;">
    <g transform="matrix(1,0,0,1,-2351.32,-2045.83)">
        <g transform="matrix(4.16667,0,0,4.16667,0,0)">
            <g transform="matrix(1,0,0,1,564.318,505.811)">
                <path d="M13.421,85.848L0,85.848L0,-0L35.635,-0L35.635,12.264L13.421,12.264L13.421,85.848Z" style="fill:white;fill-rule:nonzero;"/>
            </g>
        </g>
        <g transform="matrix(4.16667,0,0,4.16667,0,0)">
            <g transform="matrix(1,0,0,1,611.059,505.811)">
                <path d="M47.205,85.848L33.552,85.848L31.238,70.344L14.578,70.344L12.264,85.848L0,85.848L13.652,-0L33.321,-0L47.205,85.848ZM16.429,58.543L29.387,58.543L22.908,15.041L16.429,58.543Z" style="fill:white;fill-rule:nonzero;"/>
            </g>
        </g>
        <g transform="matrix(4.16667,0,0,4.16667,0,0)">
            <g transform="matrix(1,0,0,1,671.915,504.653)">
                <path d="M26.61,22.213C26.61,18.28 25.916,15.734 24.759,14.346C23.602,12.958 21.751,12.263 19.669,12.263C17.586,12.263 15.735,12.958 14.578,14.115C13.421,15.272 12.727,17.585 12.727,20.594L12.727,29.849L0,29.849L0,21.519C0,14.577 1.62,9.255 5.091,5.553C8.562,1.851 13.421,-0.001 20.131,-0.001C26.842,-0.001 31.701,1.851 35.172,5.553C38.643,9.255 40.263,14.577 40.263,21.519L40.263,23.833C40.263,33.089 37.023,38.874 30.776,41.419C34.247,42.808 36.56,45.122 38.18,48.13C39.569,51.138 40.263,54.84 40.263,59.237L40.263,66.41C40.263,73.352 38.643,78.674 35.172,82.376C31.701,86.079 26.842,87.93 20.131,87.93C13.421,87.93 8.562,86.079 5.091,82.376C1.62,78.674 0,73.352 0,66.41L0,55.534L12.727,55.534L12.727,67.104C12.727,70.112 13.421,72.426 14.578,73.583C15.735,74.74 17.586,75.434 19.669,75.434C21.751,75.434 23.602,74.74 24.759,73.583C25.916,72.195 26.61,69.649 26.61,65.947L26.61,59.237C26.61,55.303 25.916,52.526 24.528,50.675C23.14,49.055 20.826,48.13 17.817,48.13L15.503,48.13L15.503,35.866L18.28,35.866C20.826,35.866 22.908,35.172 24.297,34.015C25.685,32.626 26.379,30.312 26.379,26.841L26.379,22.213L26.61,22.213Z" style="fill:white;fill-rule:nonzero;"/>
            </g>
        </g>
        <g transform="matrix(4.16667,0,0,4.16667,0,0)">
            <g transform="matrix(1,0,0,1,727.913,504.882)">
                <path d="M40.263,54.61L40.263,66.179C40.263,73.121 38.643,78.443 35.172,82.146C31.701,85.848 26.842,87.699 20.131,87.699C13.421,87.699 8.562,85.848 5.091,82.146C1.62,78.443 0,73.121 0,66.179L0,21.52C0,14.578 1.62,9.256 5.091,5.554C8.562,1.852 13.421,0 20.131,0C26.842,0 31.701,1.852 35.172,5.554C38.643,9.256 40.263,14.578 40.263,21.52L40.263,29.85L27.536,29.85L27.536,20.595C27.536,17.586 26.842,15.272 25.685,14.115C24.528,12.959 22.677,12.264 20.594,12.264C18.512,12.264 16.66,12.959 15.503,14.115C14.347,15.272 13.652,17.586 13.652,20.595L13.652,66.874C13.652,69.882 14.347,72.196 15.503,73.353C16.66,74.51 18.512,75.204 20.594,75.204C22.677,75.204 24.528,74.51 25.685,73.353C26.842,72.196 27.536,69.882 27.536,66.874L27.536,54.61L40.263,54.61Z" style="fill:white;fill-rule:nonzero;"/>
            </g>
        </g>
        <g transform="matrix(4.16667,0,0,4.16667,0,0)">
            <g transform="matrix(1,0,0,1,781.598,505.811)">
                <path d="M0,-0L41.651,-0L41.651,12.264L27.536,12.264L27.536,85.848L14.115,85.848L14.115,12.264L0,12.264L0,-0Z" style="fill:white;fill-rule:nonzero;"/>
            </g>
        </g>
        <g transform="matrix(4.16667,0,0,4.16667,0,0)">
            <g transform="matrix(1,0,0,1,837.826,505.811)">
                <path d="M19.9,-0C26.61,-0 31.701,1.851 34.941,5.322C38.18,9.024 39.8,14.115 39.8,21.057L39.8,32.164C39.8,39.106 38.18,44.428 34.941,47.899C31.701,51.601 26.61,53.221 19.9,53.221L13.421,53.221L13.421,85.385L0,85.385L0,-0L19.9,-0ZM13.652,12.264L13.652,41.42L20.131,41.42C22.214,41.42 23.834,40.957 24.991,39.8C26.148,38.643 26.61,36.56 26.61,33.321L26.61,20.363C26.61,17.355 26.148,15.041 24.991,13.884C23.834,12.727 22.214,12.264 20.131,12.264L13.652,12.264Z" style="fill:white;fill-rule:nonzero;"/>
            </g>
        </g>
        <g transform="matrix(4.16667,0,0,4.16667,0,0)">
            <g transform="matrix(1,0,0,1,891.511,504.882)">
                <path d="M0,21.52C0,14.578 1.851,9.256 5.322,5.554C8.793,1.852 13.884,0 20.594,0C27.305,0 32.395,1.852 35.866,5.554C39.337,9.256 41.188,14.578 41.188,21.52L41.188,66.179C41.188,73.121 39.337,78.443 35.866,82.146C32.395,85.848 27.305,87.699 20.594,87.699C13.884,87.699 8.793,85.848 5.322,82.146C1.851,78.443 0,73.121 0,66.179L0,21.52ZM13.421,67.105C13.421,70.113 14.115,72.427 15.272,73.584C16.429,74.741 18.28,75.435 20.363,75.435C22.445,75.435 24.297,74.741 25.453,73.584C26.61,72.427 27.305,70.113 27.305,67.105L27.305,20.826C27.305,17.818 26.61,15.504 25.453,14.347C24.297,13.19 22.445,12.496 20.363,12.496C18.28,12.496 16.429,13.19 15.272,14.347C14.115,15.504 13.421,17.818 13.421,20.826L13.421,67.105Z" style="fill:white;fill-rule:nonzero;"/>
            </g>
        </g>
        <g transform="matrix(4.16667,0,0,4.16667,0,0)">
            <g transform="matrix(1,0,0,1,949.589,491.001)">
                <path d="M13.884,100.656L0,100.656L0,14.809L12.033,14.809L12.033,66.178L25.916,14.809L42.808,14.809L42.808,100.656L30.776,100.656L30.776,38.411L13.884,100.656ZM36.329,-0.001L36.329,9.949L6.71,9.949L6.71,-0.001L36.329,-0.001Z" style="fill:white;fill-rule:nonzero;"/>
            </g>
        </g>
        <g transform="matrix(4.16667,0,0,4.16667,0,0)">
            <g transform="matrix(1,0,0,1,1010.68,505.811)">
                <path d="M13.652,85.848L0,85.848L0,-0L42.577,-0L42.577,85.848L28.924,85.848L28.924,12.264L13.652,12.264L13.652,85.848Z" style="fill:white;fill-rule:nonzero;"/>
            </g>
        </g>
        <g transform="matrix(4.16667,0,0,4.16667,0,0)">
            <g transform="matrix(1,0,0,1,1071.54,505.811)">
                <path d="M19.9,-0C26.61,-0 31.701,1.851 34.941,5.322C38.18,9.024 39.8,14.115 39.8,21.057L39.8,32.164C39.8,39.106 38.18,44.428 34.941,47.899C31.701,51.601 26.61,53.221 19.9,53.221L13.421,53.221L13.421,85.385L0,85.385L0,-0L19.9,-0ZM13.652,12.264L13.652,41.42L20.131,41.42C22.214,41.42 23.834,40.957 24.991,39.8C26.148,38.643 26.61,36.56 26.61,33.321L26.61,20.363C26.61,17.355 26.148,15.041 24.991,13.884C23.834,12.727 22.214,12.264 20.131,12.264L13.652,12.264Z" style="fill:white;fill-rule:nonzero;"/>
            </g>
        </g>
        <g transform="matrix(4.16667,0,0,4.16667,0,0)">
            <g transform="matrix(1,0,0,1,1125.22,504.882)">
                <path d="M0,21.52C0,14.578 1.851,9.256 5.322,5.554C8.793,1.852 13.884,0 20.594,0C27.305,0 32.395,1.852 35.866,5.554C39.337,9.256 41.188,14.578 41.188,21.52L41.188,66.179C41.188,73.121 39.337,78.443 35.866,82.146C32.395,85.848 27.305,87.699 20.594,87.699C13.884,87.699 8.793,85.848 5.322,82.146C1.851,78.443 0,73.121 0,66.179L0,21.52ZM13.421,67.105C13.421,70.113 14.115,72.427 15.272,73.584C16.429,74.741 18.28,75.435 20.363,75.435C22.445,75.435 24.297,74.741 25.453,73.584C26.61,72.427 27.305,70.113 27.305,67.105L27.305,20.826C27.305,17.818 26.61,15.504 25.453,14.347C24.297,13.19 22.445,12.496 20.363,12.496C18.28,12.496 16.429,13.19 15.272,14.347C14.115,15.504 13.421,17.818 13.421,20.826L13.421,67.105Z" style="fill:white;fill-rule:nonzero;"/>
            </g>
        </g>
        <g transform="matrix(4.16667,0,0,4.16667,0,0)">
            <g transform="matrix(1,0,0,1,1183.53,505.811)">
                <path d="M28.462,60.857L37.717,-0L56.46,-0L56.46,85.848L43.734,85.848L43.734,24.296L34.478,85.848L21.751,85.848L11.801,25.222L11.801,85.848L0,85.848L0,-0L18.743,-0L28.462,60.857Z" style="fill:white;fill-rule:nonzero;"/>
            </g>
        </g>
    </g>
</svg>
